#!OML:ASF F:\VICON\USERDATA\INSTALL\rory3\rory3.ASF
:FULLY-SPECIFIED
:DEGREES
412
root -10.0008 12.0858 9.36085 4.8822 -44.3971 -1.72586
lowerback 29.2492 0.125617 -3.53377
upperback 6.67067 -1.17337 -0.121265
thorax -8.54468 -0.609657 2.33985
lowerneck -15.0339 -1.51053 -9.54311
upperneck 35.3034 -1.91892 5.72418
head 14.9235 -1.5003 3.71287
rclavicle 2.90226e-014 -2.22639e-014
rhumerus -22.1393 -7.5579 -78.3273
rradius 39.4863
rwrist 0.764998
rhand -16.7414 9.63883
rfingers 7.12502
rthumb 9.48488 -20.1277
lclavicle 2.90226e-014 -2.22639e-014
lhumerus 4.22513 -15.8128 96.6234
lradius 26.9813
lwrist 1.45255
lhand -24.9629 46.9469
lfingers 7.12502
lthumb 1.5474 76.9211
rfemur -73.4606 -28.9865 28.5311
rtibia 117.857
rfoot -25.7981 3.81115
rtoes -9.84282
lfemur -69.0202 34.6995 -22.8009
ltibia 111.617
lfoot -33.2504 -14.5946
ltoes -13.4347
413
root -10.0009 11.9348 9.37151 4.63601 -44.3524 -1.59501
lowerback 29.5074 0.108692 -3.67378
upperback 6.77018 -1.25295 -0.140366
thorax -8.54926 -0.648484 2.43143
lowerneck -15.0458 -1.48653 -9.63361
upperneck 35.1871 -1.84007 5.71124
head 14.8644 -1.47597 3.73229
rclavicle -3.4191e-014 2.78299e-014
rhumerus -22.1549 -7.34592 -78.4564
rradius 39.4554
rwrist 0.707989
rhand -16.7981 9.14714
rfingers 7.12502
rthumb 9.43019 -20.6219
lclavicle -3.4191e-014 2.78299e-014
lhumerus 4.64335 -14.7373 96.9862
lradius 26.1969
lwrist 0.842053
lhand -24.424 47.3437
lfingers 7.12502
lthumb 2.06784 77.3134
rfemur -74.4776 -29.6396 28.5546
rtibia 119.44
rfoot -25.6675 4.0476
rtoes -9.76929
lfemur -69.8867 35.1462 -22.9171
ltibia 113.221
lfoot -33.3244 -15.1072
ltoes -12.2718
414
root -10.001 11.7679 9.38121 4.44355 -44.3723 -1.56869
lowerback 29.7835 0.0937696 -3.82243
upperback 6.86704 -1.3326 -0.14005
thorax -8.56372 -0.687193 2.55072
lowerneck -15.0553 -1.41988 -9.64079
upperneck 35.0646 -1.70173 5.63221
head 14.7936 -1.42434 3.71818
rclavicle 3.45885e-014 -4.37326e-014
rhumerus -22.1943 -7.1894 -78.6059
rradius 39.3145
rwrist 0.889304
rhand -16.8501 9.08396
rfingers 7.12502
rthumb 9.37997 -20.6873
lclavicle 3.45885e-014 -4.37326e-014
lhumerus 4.9913 -13.6465 97.2738
lradius 25.5849
lwrist 0.0545272
lhand -24.1546 47.6308
lfingers 7.12502
lthumb 2.32809 77.5978
rfemur -75.5799 -30.3966 28.6448
rtibia 121.13
rfoot -25.5992 4.67718
rtoes -8.59982
lfemur -70.8157 35.7616 -22.9153
ltibia 114.858
lfoot -33.064 -16.3579
ltoes -9.57451
415
root -10.0016 11.5856 9.39426 4.38765 -44.4603 -1.604
lowerback 29.9399 0.0785142 -3.87458
upperback 6.95095 -1.3823 -0.177262
thorax -8.54006 -0.714033 2.55908
lowerneck -15.1193 -1.33936 -9.54864
upperneck 34.9777 -1.56469 5.53892
head 14.7509 -1.36259 3.68202
rclavicle 8.42847e-014 -4.77083e-015
rhumerus -22.2332 -7.21992 -78.8012
rradius 39.0616
rwrist 1.20729
rhand -16.8902 9.67209
rfingers 7.12502
rthumb 9.34125 -20.1009
lclavicle 8.42847e-014 -4.77083e-015
lhumerus 5.20098 -12.9136 97.4427
lradius 25.212
lwrist -0.615927
lhand -24.669 47.8627
lfingers 7.12502
lthumb 1.83123 77.8346
rfemur -76.8415 -31.0692 28.8035
rtibia 122.882
rfoot -25.5469 5.30496
rtoes -7.63331
lfemur -71.911 36.4997 -22.9447
ltibia 116.562
lfoot -33.0007 -17.3983
ltoes -8.33804
416
root -10.0045 11.4109 9.41231 4.15631 -44.5618 -1.50038
lowerback 30.1449 0.0401416 -3.95568
upperback 7.02716 -1.48058 -0.285383
thorax -8.54637 -0.762707 2.52301
lowerneck -15.129 -1.226 -9.52664
upperneck 34.9106 -1.42011 5.59336
head 14.7051 -1.28947 3.72204
rclavicle -2.42517e-014 2.38542e-015
rhumerus -22.3237 -7.09532 -79.066
rradius 38.9496
rwrist 1.14016
rhand -16.6237 9.52156
rfingers 7.12502
rthumb 9.59847 -20.2398
lclavicle -2.42517e-014 2.38542e-015
lhumerus 5.4495 -12.5185 97.3733
lradius 24.7698
lwrist -1.42965
lhand -24.7277 48.0713
lfingers 7.12502
lthumb 1.77452 78.0437
rfemur -77.9247 -31.6571 28.763
rtibia 124.545
rfoot -25.4885 5.76327
rtoes -7.62527
lfemur -72.7588 37.2987 -23.0346
ltibia 118.208
lfoot -33.3527 -17.9478
ltoes -9.33031
